<svg width="82" height="68" viewBox="0 0 82 68" fill="none" xmlns="http://www.w3.org/2000/svg">
<path d="M63.2667 56.3747C57.3029 62.333 49.3822 65.6154 40.9532 65.6154C23.5678 65.6154 9.42087 51.4768 9.40438 34.0969L15.8382 40.5389C16.2646 40.9626 16.9508 40.9626 17.3768 40.5389C17.7977 40.1125 17.7977 39.424 17.3768 39.0003L8.84739 30.4673L0.319835 39.0003C-0.106612 39.424 -0.106612 40.1129 0.319835 40.5389C0.530081 40.7519 0.809034 40.8559 1.08524 40.8559C1.36694 40.8559 1.64544 40.7492 1.85339 40.5389L7.27031 35.1193C7.83601 53.2265 22.7016 67.7912 40.9426 67.7912C49.9539 67.7912 58.4237 64.2821 64.7975 57.911C65.2212 57.4873 65.2212 56.7984 64.7975 56.3752C64.3848 55.9483 63.6931 55.9483 63.2667 56.3747Z" fill="#51ABFE"/>
<path d="M81.6799 27.4611C81.259 27.0374 80.57 27.0374 80.1441 27.4611L74.7322 32.878C74.161 14.7708 59.2954 0.208862 41.0571 0.208862C32.0404 0.208862 23.5733 3.718 17.1995 10.089C16.773 10.5127 16.773 11.2017 17.1995 11.6249C17.6204 12.0513 18.3121 12.0513 18.7353 11.6249C24.6964 5.66655 32.6198 2.38415 41.0489 2.38415C58.4315 2.38415 72.5812 16.5201 72.6032 33.9027L66.1639 27.4607C65.7402 27.037 65.0513 27.037 64.6253 27.4607C64.2043 27.8871 64.2043 28.5756 64.6253 28.9993L73.1556 37.5296L81.6831 28.9993C82.1064 28.576 82.1064 27.8871 81.6799 27.4611Z" fill="#51ABFE"/>
</svg>
