<svg width="76" height="70" viewBox="0 0 76 70" fill="none" xmlns="http://www.w3.org/2000/svg">
<path d="M6.83535 70H68.7574C72.5635 70 75.5909 66.8609 75.5909 62.9198V48.0102C75.6031 47.806 75.5554 47.603 75.4537 47.4256L63.4413 28.6654C63.2472 28.3506 62.9035 28.1574 62.5316 28.1549H61.7904V1.02144C61.7904 0.419879 61.236 0 60.6302 0H14.9626C14.3568 0 13.8024 0.419879 13.8024 1.02144V28.1556H13.0593C12.6832 28.158 12.334 28.3506 12.133 28.6666L0.139103 47.4226C0.0374122 47.6012 -0.01037 47.8054 0.00188184 48.0102V62.9198C0.00188184 66.8609 3.02931 70 6.83535 70ZM61.9301 30.3333L72.6921 47.1333H61.7904V30.3333H61.9301ZM59.5949 2.17778V47.1333H50.7613C50.2345 47.1309 49.7805 47.5022 49.6825 48.0156C49.2525 49.8689 48.4898 51.6299 47.4294 53.2146C45.142 56.6119 41.9008 58.3333 37.7964 58.3333C33.7165 58.3333 30.4882 56.6295 28.2032 53.2711C27.1262 51.6706 26.3495 49.8902 25.9103 48.0156C25.8122 47.5022 25.3583 47.1309 24.8315 47.1333H15.9979V2.17778H59.5949ZM13.6615 30.3333H13.8024V47.1333H2.90067L13.6615 30.3333ZM2.19741 49.3111H23.972C24.4958 51.1249 25.2934 52.8494 26.3378 54.4268C29.0192 58.4099 32.982 60.5129 37.7964 60.5129C42.6107 60.5129 46.5736 58.4111 49.2549 54.428C50.2994 52.8506 51.097 51.1255 51.6208 49.3111H73.3954V62.9198C73.3954 65.6602 71.353 67.8222 68.7574 67.8222H6.83535C4.2398 67.8222 2.19741 65.6602 2.19741 62.9198V49.3111Z" fill="black"/>
<path d="M21.4131 33.9111H39.6672C40.2736 33.9111 40.7649 33.4237 40.7649 32.8222C40.7649 32.2206 40.2736 31.7333 39.6672 31.7333H21.4131C20.8067 31.7333 20.3154 32.2206 20.3154 32.8222C20.3154 33.4237 20.8067 33.9111 21.4131 33.9111Z" fill="black"/>
<path d="M20.3154 37.6444C20.3154 38.246 20.8067 38.7333 21.4131 38.7333H54.1795C54.7859 38.7333 55.2772 38.246 55.2772 37.6444C55.2772 37.0429 54.7859 36.5555 54.1795 36.5555H21.4131C20.8067 36.5555 20.3154 37.0429 20.3154 37.6444Z" fill="black"/>
<path d="M54.1795 41.3777H21.4131C20.8067 41.3777 20.3154 41.8651 20.3154 42.4666C20.3154 43.0682 20.8067 43.5555 21.4131 43.5555H54.1795C54.7859 43.5555 55.2772 43.0682 55.2772 42.4666C55.2772 41.8651 54.7859 41.3777 54.1795 41.3777Z" fill="black"/>
<path d="M30.6964 20.8626C29.7634 20.8613 29.0075 20.1115 29.0063 19.1861C29.0063 18.5845 28.515 18.0972 27.9085 18.0972C27.302 18.0972 26.8107 18.5845 26.8107 19.1861C26.8132 20.9106 27.9685 22.4248 29.6415 22.8951V23.6443C29.6415 24.2459 30.1328 24.7332 30.7393 24.7332C31.3458 24.7332 31.8371 24.2459 31.8371 23.6443V22.8708C33.6755 22.3106 34.8241 20.501 34.5392 18.6143C34.2537 16.7276 32.62 15.3318 30.6964 15.3318C29.7628 15.3318 29.0063 14.5814 29.0063 13.6553C29.0063 12.7293 29.7628 11.9789 30.6964 11.9789C31.63 11.9789 32.3866 12.7293 32.3866 13.6553C32.3866 14.2569 32.8785 14.7442 33.4843 14.7442C34.0908 14.7442 34.5821 14.2569 34.5821 13.6553C34.5796 11.9035 33.3888 10.3723 31.6802 9.92688V9.33321C31.6802 8.73165 31.1889 8.24432 30.5825 8.24432C29.976 8.24432 29.4847 8.73165 29.4847 9.33321V9.99432C27.6708 10.5849 26.5584 12.3945 26.8598 14.2642C27.1618 16.1339 28.7876 17.5096 30.6964 17.5096C31.6239 17.5187 32.3706 18.2667 32.3706 19.1861C32.3706 20.106 31.6239 20.854 30.6964 20.8626Z" fill="black"/>
<path d="M30.6965 28.0691C37.1465 28.0691 42.3743 22.8835 42.3743 16.4857C42.3743 10.0885 37.1465 4.90228 30.6965 4.90228C24.2471 4.90228 19.0186 10.0885 19.0186 16.4857C19.026 22.8799 24.2502 28.0618 30.6965 28.0691ZM30.6965 7.08006C35.9335 7.08006 40.1788 11.2916 40.1788 16.4857C40.1788 21.6804 35.9335 25.8913 30.6965 25.8913C25.4594 25.8913 21.2141 21.6804 21.2141 16.4857C21.2203 11.2934 25.4625 7.08614 30.6965 7.08006Z" fill="black"/>
</svg>
