<svg width="70" height="70" viewBox="0 0 70 70" fill="none" xmlns="http://www.w3.org/2000/svg">
<path d="M18.0645 49.3364H20.3226V51.5666H18.0645V49.3364Z" fill="black"/>
<path d="M9.03229 49.3364H11.2904V51.5666H9.03229V49.3364Z" fill="black"/>
<path d="M13.5484 49.3364H15.8065V51.5666H13.5484V49.3364Z" fill="black"/>
<path d="M50.8065 19.2289C50.8065 21.6888 52.8319 23.6893 55.3226 23.6893C57.8132 23.6893 59.8387 21.6888 59.8387 19.2289C59.8387 16.769 57.8132 14.7685 55.3226 14.7685C52.8319 14.7685 50.8065 16.769 50.8065 19.2289ZM57.5807 19.2289C57.5807 20.4588 56.5679 21.4591 55.3226 21.4591C54.0773 21.4591 53.0645 20.4588 53.0645 19.2289C53.0645 17.999 54.0773 16.9987 55.3226 16.9987C56.5679 16.9987 57.5807 17.999 57.5807 19.2289Z" fill="black"/>
<path d="M70 23.3637V15.0941L67.9384 14.376C67.8684 14.2009 67.795 14.0259 67.7171 13.8508L68.661 11.9005L66.1703 9.44061L69.685 6.96287L61.9681 1.51898C60.8131 0.70385 59.4515 0.272308 58.0289 0.272308H57.5806C55.6997 0.272308 53.996 1.03503 52.7676 2.26164C52.2392 1.0919 51.056 0.272308 49.6774 0.272308H6.77419C3.03823 0.272308 0 3.27303 0 6.96287C0 8.9377 0.876129 10.7096 2.25806 11.9362V50.4515C2.25806 53.5258 4.79048 56.027 7.90323 56.027H25.926C25.7363 57.8056 24.8003 59.418 23.3337 60.4874H20.3226C17.2098 60.4874 14.6774 62.9885 14.6774 66.0628C14.6774 67.9072 16.1971 69.4081 18.0645 69.4081H51.9355C53.8029 69.4081 55.3226 67.9072 55.3226 66.0628C55.3226 62.9885 52.7902 60.4874 49.6774 60.4874H46.6674C45.2008 59.418 44.2648 57.8056 44.0752 56.027H62.0968C65.2095 56.027 67.7419 53.5258 67.7419 50.4515V27.4639L68.6598 26.5573L67.716 24.607C67.7939 24.433 67.8684 24.258 67.9373 24.0818L70 23.3637ZM57.5806 2.5025H58.0289C58.9773 2.5025 59.885 2.79019 60.6539 3.33324L65.7989 6.96287L60.6527 10.5925C59.885 11.1356 58.9773 11.4232 58.0289 11.4232H57.5806C55.09 11.4232 53.0645 9.42277 53.0645 6.96287C53.0645 4.50297 55.09 2.5025 57.5806 2.5025ZM62.0968 19.2289C62.0968 22.9187 59.0585 25.9195 55.3226 25.9195C51.5866 25.9195 48.5484 22.9187 48.5484 19.2289C48.5484 16.0052 50.9035 13.2643 54.0727 12.6755C55.0979 13.2921 56.2958 13.6534 57.5806 13.6534H58.0289C58.3337 13.6534 58.634 13.6244 58.9321 13.5843C60.8898 14.8076 62.0968 16.924 62.0968 19.2289ZM50.8064 3.61759V10.3082C50.8064 10.9237 50.3006 11.4232 49.6774 11.4232H46.2903V2.5025H49.6774C50.3006 2.5025 50.8064 3.00206 50.8064 3.61759ZM37.2581 11.4232V2.5025H39.5161V11.4232H37.2581ZM41.7742 2.5025H44.0323V11.4232H41.7742V2.5025ZM6.77419 2.5025H35V11.4232H6.77419C4.28355 11.4232 2.25806 9.42277 2.25806 6.96287C2.25806 4.50297 4.28355 2.5025 6.77419 2.5025ZM53.0645 66.0628C53.0645 66.6784 52.5587 67.1779 51.9355 67.1779H18.0645C17.4413 67.1779 16.9355 66.6784 16.9355 66.0628C16.9355 64.2185 18.4552 62.7175 20.3226 62.7175H49.6774C51.5448 62.7175 53.0645 64.2185 53.0645 66.0628ZM43.5005 60.4874H26.4995C27.4682 59.1994 28.0553 57.6595 28.184 56.027H41.8171C41.9458 57.6595 42.5329 59.1994 43.5005 60.4874ZM62.0968 53.7968H7.90323C6.03581 53.7968 4.51613 52.2959 4.51613 50.4515V47.1062H65.4839V50.4515C65.4839 52.2959 63.9642 53.7968 62.0968 53.7968ZM65.4839 44.8761H4.51613V13.2631C5.22403 13.5107 5.98161 13.6534 6.77419 13.6534H42.8321L42.9281 13.8519C42.8502 14.0259 42.7756 14.2009 42.7068 14.3771L40.6452 15.0941V23.3637L42.7068 24.0818C42.7768 24.2569 42.8502 24.4319 42.9281 24.607L41.9842 26.5573L47.9026 32.4026L49.8773 31.4704C50.0534 31.5473 50.2306 31.6209 50.409 31.689L51.1361 33.7251H59.509L60.2361 31.689C60.4134 31.6198 60.5906 31.5473 60.7679 31.4704L62.7426 32.4026L65.4839 29.6941V44.8761ZM67.7419 21.7847L66.1692 22.3322L65.9931 22.844C65.8463 23.27 65.6645 23.6993 65.4545 24.1208L65.2129 24.607L65.9343 26.0956L62.274 29.7108L60.7668 28.9982L60.2745 29.2369C59.8477 29.4443 59.4131 29.6238 58.9818 29.7688L58.4636 29.9427L57.9103 31.4949H52.7348L52.1805 29.9416L51.6623 29.7676C51.231 29.6227 50.7963 29.4432 50.3695 29.2358L49.8773 28.9971L48.37 29.7097L44.7097 26.0945L45.4311 24.6059L45.1895 24.1197C44.9795 23.6982 44.7977 23.2689 44.651 22.8429L44.4748 22.3311L42.9032 21.7847V16.6731L44.476 16.1256L44.6521 15.6138C44.7989 15.1878 44.9806 14.7585 45.1906 14.337L45.4323 13.8508L45.3352 13.6534H48.2898C47.04 15.1911 46.2903 17.1348 46.2903 19.2289C46.2903 24.1476 50.3424 28.1496 55.3226 28.1496C60.3027 28.1496 64.3548 24.1476 64.3548 19.2289C64.3548 16.7177 63.2823 14.3704 61.469 12.7034C61.6361 12.6052 61.8077 12.5183 61.9658 12.4056L64.3063 10.7542L65.9332 12.361L65.2118 13.8497L65.4534 14.3359C65.6634 14.7574 65.8452 15.1867 65.9919 15.6127L66.1681 16.1245L67.7419 16.6731V21.7847Z" fill="black"/>
<path d="M6.77417 24.8044H38.3871V15.8836H6.77417V24.8044ZM9.03223 18.1138H36.129V22.5742H9.03223V18.1138Z" fill="black"/>
<path d="M6.77417 42.6458H22.5806V27.0345H6.77417V42.6458ZM9.03223 29.2647H20.3226V40.4156H9.03223V29.2647Z" fill="black"/>
<path d="M24.8387 27.0345H27.0968V29.2647H24.8387V27.0345Z" fill="black"/>
<path d="M29.3548 27.0345H38.3871V29.2647H29.3548V27.0345Z" fill="black"/>
<path d="M24.8387 31.4949H38.3871V33.7251H24.8387V31.4949Z" fill="black"/>
<path d="M24.8387 35.9553H38.3871V38.1855H24.8387V35.9553Z" fill="black"/>
<path d="M24.8387 40.4156H38.3871V42.6458H24.8387V40.4156Z" fill="black"/>
<path d="M40.6452 42.6459H63.2258V35.9553H40.6452V42.6459ZM42.9033 38.1855H60.9678V40.4157H42.9033V38.1855Z" fill="black"/>
</svg>
