<svg width="73" height="73" viewBox="0 0 73 73" fill="none" xmlns="http://www.w3.org/2000/svg">
<path d="M52.1429 25.6691V21.2308C52.1429 20.8067 51.9878 20.3973 51.707 20.0796C51.4261 19.7618 51.0387 19.5578 50.6178 19.5058L46.9446 19.0521L45.7948 16.2754L48.0704 13.3571C48.3311 13.0227 48.4606 12.6046 48.4345 12.1813C48.4085 11.7581 48.2285 11.359 47.9287 11.0592L41.0836 4.21488C40.7838 3.91503 40.3847 3.73513 39.9615 3.70904C39.5383 3.68295 39.1201 3.81247 38.7857 4.07323L35.8675 6.3481L33.0907 5.19821L32.6371 1.52503C32.5851 1.10415 32.381 0.716787 32.0633 0.435901C31.7456 0.155014 31.3361 -1.7715e-05 30.912 1.51828e-09H21.2308C20.8067 -1.7715e-05 20.3973 0.155014 20.0796 0.435901C19.7618 0.716787 19.5578 1.10415 19.5058 1.52503L19.0521 5.19821L16.2754 6.3481L13.3571 4.0725C13.0227 3.81175 12.6046 3.68222 12.1813 3.70831C11.7581 3.7344 11.359 3.91431 11.0592 4.21416L4.21488 11.0592C3.91503 11.359 3.73513 11.7581 3.70904 12.1813C3.68295 12.6046 3.81247 13.0227 4.07323 13.3571L6.34883 16.2754L5.19893 19.0521L1.52576 19.5058C1.10474 19.5576 0.717207 19.7616 0.436172 20.0793C0.155137 20.3971 4.07369e-06 20.8066 1.51828e-09 21.2308V30.912C-1.7715e-05 31.3361 0.155014 31.7456 0.435901 32.0633C0.716787 32.381 1.10415 32.5851 1.52503 32.6371L5.19821 33.0907L6.3481 35.8675L4.0725 38.7857C3.81175 39.1201 3.68222 39.5383 3.70831 39.9615C3.7344 40.3847 3.91431 40.7838 4.21416 41.0836L11.0592 47.9287C11.359 48.2285 11.7581 48.4085 12.1813 48.4345C12.6046 48.4606 13.0227 48.3311 13.3571 48.0704L16.2754 45.7948L19.0521 46.9446L19.5058 50.6178C19.5578 51.0387 19.7618 51.4261 20.0796 51.707C20.3973 51.9878 20.8067 52.1429 21.2308 52.1429H25.6691C27.103 63.8795 37.1286 73 49.246 73C62.344 73 73 62.344 73 49.246C73 37.1286 63.8795 27.1024 52.1429 25.6691ZM22.378 45.5133C22.3402 45.2082 22.2222 44.9185 22.036 44.6738C21.8498 44.4292 21.6021 44.2382 21.318 44.1205L16.6701 42.1956C16.3861 42.078 16.076 42.0378 15.7714 42.0791C15.4668 42.1204 15.1786 42.2418 14.9362 42.4308L12.4304 44.3844L7.75784 39.7119L9.71146 37.2061C9.90049 36.9637 10.0219 36.6755 10.0632 36.3709C10.1045 36.0663 10.0643 35.7562 9.94668 35.4722L8.02174 30.8242C7.90403 30.5402 7.71311 30.2925 7.46843 30.1063C7.22376 29.9201 6.93409 29.8021 6.62895 29.7643L3.47619 29.3754V22.7675L6.62953 22.378C6.93467 22.3402 7.22434 22.2222 7.46901 22.036C7.71369 21.8498 7.90461 21.6021 8.02232 21.318L9.94726 16.6701C10.0649 16.3861 10.1051 16.076 10.0638 15.7714C10.0224 15.4668 9.90107 15.1786 9.71204 14.9362L7.75842 12.4304L12.431 7.75784L14.9368 9.71146C15.1792 9.90049 15.4673 10.0219 15.7719 10.0632C16.0765 10.1045 16.3867 10.0643 16.6707 9.94668L21.3186 8.02174C21.6026 7.90403 21.8504 7.71311 22.0366 7.46843C22.2228 7.22376 22.3408 6.93409 22.3786 6.62895L22.7675 3.47619H29.3754L29.7649 6.62953C29.8026 6.93467 29.9206 7.22434 30.1068 7.46901C30.293 7.71369 30.5408 7.90461 30.8248 8.02232L35.4728 9.94726C35.7568 10.0649 36.0669 10.1051 36.3715 10.0638C36.6761 10.0224 36.9643 9.90107 37.2067 9.71204L39.7124 7.75842L44.385 12.431L42.4314 14.9368C42.2424 15.1792 42.121 15.4673 42.0797 15.7719C42.0384 16.0765 42.0786 16.3867 42.1962 16.6707L44.1211 21.3186C44.2388 21.6026 44.4298 21.8504 44.6744 22.0366C44.9191 22.2228 45.2088 22.3408 45.5139 22.3786L48.6667 22.7675V25.4994C45.3792 25.5759 42.144 26.3388 39.1687 27.739C39.3174 26.5847 39.3132 25.416 39.1564 24.2628C38.8123 21.7474 37.7514 19.3843 36.1005 17.4556C34.4495 15.5269 32.2783 14.1142 29.8461 13.3863C27.4139 12.6584 24.8236 12.6459 22.3845 13.3505C19.9454 14.055 17.7607 15.4468 16.0913 17.3596C14.4219 19.2723 13.3384 21.6252 12.9702 24.1371C12.602 26.6491 12.9646 29.2139 14.0148 31.5253C15.065 33.8367 16.7584 35.7969 18.8926 37.1719C21.0269 38.5468 23.5118 39.2783 26.0506 39.2791C26.6148 39.2788 27.1784 39.2427 27.7381 39.1712C26.3385 42.1458 25.576 45.3801 25.4994 48.6667H22.7675L22.378 45.5133ZM30.4174 34.7817C28.5886 35.6845 26.5235 35.9936 24.5106 35.6658C22.4976 35.3381 20.6372 34.3898 19.1893 32.9536C18.27 32.0532 17.5384 30.9796 17.0367 29.7947C16.535 28.6098 16.2733 27.3372 16.2666 26.0504C16.2599 24.7637 16.5084 23.4885 16.9977 22.2984C17.487 21.1083 18.2074 20.0271 19.1173 19.1173C20.0271 18.2074 21.1083 17.487 22.2984 16.9977C23.4885 16.5084 24.7637 16.2599 26.0504 16.2666C27.3372 16.2733 28.6098 16.535 29.7947 17.0367C30.9796 17.5384 32.0532 18.27 32.9536 19.1893C34.3897 20.6373 35.3378 22.4977 35.6656 24.5106C35.9933 26.5235 35.6843 28.5886 34.7817 30.4174C33.1449 31.6779 31.6779 33.1449 30.4174 34.7817ZM49.246 69.5238C38.0643 69.5238 28.9683 60.4278 28.9683 49.246C28.9683 38.0643 38.0643 28.9683 49.246 28.9683C60.4278 28.9683 69.5238 38.0643 69.5238 49.246C69.5238 60.4278 60.4278 69.5238 49.246 69.5238Z" fill="black"/>
<path d="M63.1508 45.1905H60.254V43.4524C60.254 40.5329 59.0942 37.733 57.0298 35.6686C54.9654 33.6042 52.1655 32.4444 49.246 32.4444C46.3265 32.4444 43.5266 33.6042 41.4622 35.6686C39.3979 37.733 38.2381 40.5329 38.2381 43.4524V45.1905H35.3413C34.5733 45.1913 33.8369 45.4968 33.2939 46.0399C32.7508 46.583 32.4453 47.3193 32.4444 48.0873V54.1706C32.4452 54.8618 32.7202 55.5245 33.2089 56.0133C33.6977 56.502 34.3604 56.777 35.0516 56.7778H38.2381V57.3571C38.2396 58.7396 38.7895 60.065 39.767 61.0425C40.7446 62.02 42.0699 62.5699 43.4524 62.5714H51.5635C52.0245 62.5714 52.4666 62.3883 52.7925 62.0623C53.1185 61.7364 53.3016 61.2943 53.3016 60.8333C53.3016 60.3723 53.1185 59.9303 52.7925 59.6043C52.4666 59.2783 52.0245 59.0952 51.5635 59.0952H43.4524C42.9916 59.0947 42.5498 58.9114 42.2239 58.5856C41.8981 58.2597 41.7148 57.8179 41.7143 57.3571V43.4524C41.7143 41.4548 42.5078 39.5391 43.9203 38.1266C45.3328 36.7141 47.2485 35.9206 49.246 35.9206C51.2436 35.9206 53.1593 36.7141 54.5718 38.1266C55.9843 39.5391 56.7778 41.4548 56.7778 43.4524V55.0397C56.7778 55.5006 56.9609 55.9427 57.2869 56.2687C57.6128 56.5946 58.0549 56.7778 58.5159 56.7778H63.4405C64.1317 56.777 64.7944 56.502 65.2831 56.0133C65.7719 55.5245 66.0468 54.8618 66.0476 54.1706V48.0873C66.0467 47.3193 65.7413 46.583 65.1982 46.0399C64.6551 45.4968 63.9188 45.1913 63.1508 45.1905ZM35.9206 48.6666H38.2381V53.3016H35.9206V48.6666ZM62.5714 53.3016H60.254V48.6666H62.5714V53.3016Z" fill="black"/>
</svg>
