<svg width="85" height="90" viewBox="0 0 85 90" fill="none" xmlns="http://www.w3.org/2000/svg">
<path d="M39.1316 32.7142H42.2621V35.6871H39.1316V32.7142Z" fill="black"/>
<path d="M32.8705 32.7142H36.001V35.6871H32.8705V32.7142Z" fill="black"/>
<path d="M40.6968 20.8224H34.4358C32.3609 20.8247 30.3717 21.6086 28.9045 23.0019C27.4373 24.3952 26.6119 26.2843 26.6095 28.2547V43.1194C26.6095 43.5137 26.7744 43.8918 27.0679 44.1705C27.3615 44.4493 27.7596 44.6059 28.1747 44.6059H46.9579C47.373 44.6059 47.7712 44.4493 48.0647 44.1705C48.3583 43.8918 48.5232 43.5137 48.5232 43.1194V28.2547C48.5207 26.2843 47.6953 24.3952 46.2281 23.0019C44.761 21.6086 42.7717 20.8247 40.6968 20.8224ZM34.4358 23.7953H40.6968C41.6677 23.7965 42.6145 24.0828 43.4073 24.615C44.2001 25.1473 44.8001 25.8994 45.125 26.7683H30.0076C30.3326 25.8994 30.9326 25.1473 31.7253 24.615C32.5181 24.0828 33.4649 23.7965 34.4358 23.7953ZM45.3926 41.633H29.74V29.7412H45.3926V41.633Z" fill="black"/>
<path d="M0 87.7135C0 88.1078 0.164912 88.4859 0.458456 88.7646C0.752 89.0434 1.15013 89.2 1.56526 89.2H73.5674C73.9826 89.2 74.3807 89.0434 74.6742 88.7646C74.9678 88.4859 75.1327 88.1078 75.1327 87.7135V44.6059C75.1245 37.6611 72.9849 30.8691 68.9756 25.0611C64.9663 19.253 59.2613 14.6807 52.5585 11.9036H68.9577C69.3471 15.1725 70.9893 18.191 73.5714 20.3841C76.1534 22.5771 79.4949 23.7914 82.959 23.7953C83.3742 23.7953 83.7723 23.6387 84.0658 23.36C84.3594 23.0812 84.5243 22.7031 84.5243 22.3089V16.363C84.5243 15.9687 84.3594 15.5907 84.0658 15.3119C83.7723 15.0331 83.3742 14.8765 82.959 14.8765C81.7136 14.8765 80.5192 14.4067 79.6386 13.5704C78.758 12.7341 78.2632 11.5998 78.2632 10.4171C78.2607 8.44664 77.4354 6.55757 75.9682 5.16424C74.501 3.77092 72.5118 2.98711 70.4369 2.98475H43.8274C43.8154 2.98406 43.8034 2.98406 43.7914 2.98475C43.5792 2.69882 43.3465 2.42714 43.0949 2.17165C41.999 1.13299 40.6033 0.426359 39.0844 0.141158C37.5655 -0.144042 35.9917 0.00500429 34.562 0.56944C33.1323 1.13388 31.9111 2.08834 31.0527 3.31207C30.1944 4.5358 29.7376 5.97381 29.74 7.44416V9.71549C21.3304 11.4276 13.7923 15.8239 8.38096 22.1724C2.96964 28.5208 0.0117854 36.4382 0 44.6059V87.7135ZM79.672 17.1315C80.22 17.3856 80.798 17.5767 81.3938 17.7008V20.7183C79.9604 20.5188 78.5835 20.0488 77.3444 19.3359L79.672 17.1315ZM76.7293 14.8765C76.8561 15.037 76.986 15.1916 77.1269 15.3403L74.9042 17.4511C74.1589 16.6851 73.5389 15.8173 73.065 14.8765H76.7293ZM72.0022 6.2312C72.9146 6.53754 73.705 7.1041 74.2654 7.85339C74.8258 8.60267 75.1287 9.49807 75.1327 10.4171C75.1364 10.9169 75.1941 11.415 75.3049 11.9036H72.1258C72.0465 11.4116 72.0052 10.9148 72.0022 10.4171V6.2312ZM65.7411 5.95769H68.8716V8.93063H65.7411V5.95769ZM59.4801 5.95769H62.6106V8.93063H59.4801V5.95769ZM53.219 5.95769H56.3495V8.93063H53.219V5.95769ZM45.3927 5.95769H50.0885V8.93063H45.3927V5.95769ZM32.8706 7.44416C32.8706 6.26145 33.3653 5.12718 34.2459 4.29088C35.1266 3.45458 36.3209 2.98475 37.5664 2.98475C38.8118 2.98475 40.0061 3.45458 40.8868 4.29088C41.7674 5.12718 42.2621 6.26145 42.2621 7.44416V9.219C39.1447 8.83451 35.988 8.83451 32.8706 9.219V7.44416ZM3.13053 44.6059C3.13053 35.9327 6.75858 27.6147 13.2165 21.4819C19.6745 15.349 28.4334 11.9036 37.5664 11.9036C46.6993 11.9036 55.4582 15.349 61.9162 21.4819C68.3741 27.6147 72.0022 35.9327 72.0022 44.6059V86.2271H3.13053V44.6059Z" fill="black"/>
<path d="M64.1758 72.8489H48.5232C48.3152 72.8485 48.1093 72.8878 47.9176 72.9644C47.7259 73.041 47.5523 73.1534 47.4072 73.2948C46.7796 73.0039 46.091 72.8515 45.3927 72.8489C44.1473 72.8489 42.9529 73.3187 42.0722 74.155C41.1916 74.9913 40.6969 76.1256 40.6969 77.3083C40.6969 78.491 41.1916 79.6253 42.0722 80.4616C42.9529 81.2979 44.1473 81.7677 45.3927 81.7677C46.091 81.7651 46.7796 81.6127 47.4072 81.3218C47.5523 81.4632 47.7259 81.5756 47.9176 81.6522C48.1093 81.7288 48.3152 81.7681 48.5232 81.7677H64.1758C65.4212 81.7677 66.6156 81.2979 67.4963 80.4616C68.3769 79.6253 68.8716 78.491 68.8716 77.3083C68.8716 76.1256 68.3769 74.9913 67.4963 74.155C66.6156 73.3187 65.4212 72.8489 64.1758 72.8489ZM45.3927 78.7948C45.0831 78.7948 44.7805 78.7076 44.5231 78.5442C44.2657 78.3809 44.065 78.1488 43.9466 77.8771C43.8281 77.6055 43.7971 77.3066 43.8575 77.0183C43.9179 76.7299 44.067 76.4651 44.2859 76.2572C44.5048 76.0493 44.7837 75.9077 45.0873 75.8504C45.3909 75.793 45.7057 75.8225 45.9917 75.935C46.2777 76.0475 46.5221 76.238 46.6941 76.4825C46.8661 76.7269 46.9579 77.0143 46.9579 77.3083C46.9579 77.7025 46.793 78.0806 46.4995 78.3594C46.2059 78.6382 45.8078 78.7948 45.3927 78.7948ZM56.3495 78.7948H50.0885V75.8218H56.3495V78.7948ZM64.1758 78.7948H59.4801V75.8218H64.1758C64.591 75.8218 64.9891 75.9784 65.2827 76.2572C65.5762 76.536 65.7411 76.9141 65.7411 77.3083C65.7411 77.7025 65.5762 78.0806 65.2827 78.3594C64.9891 78.6382 64.591 78.7948 64.1758 78.7948Z" fill="black"/>
<path d="M6.26099 69.8759H9.39152V72.8489H6.26099V69.8759Z" fill="black"/>
<path d="M12.522 69.8759H15.6526V72.8489H12.522V69.8759Z" fill="black"/>
<path d="M18.7832 69.8759H21.9137V72.8489H18.7832V69.8759Z" fill="black"/>
<path d="M25.0442 69.8759H28.1748V72.8489H25.0442V69.8759Z" fill="black"/>
<path d="M6.26099 75.8218H34.4358V78.7948H6.26099V75.8218Z" fill="black"/>
<path d="M17.2178 40.1465C16.2891 40.1465 15.3812 40.4081 14.609 40.8981C13.8368 41.3881 13.2349 42.0846 12.8795 42.8994C12.5241 43.7143 12.4311 44.6109 12.6123 45.4759C12.7935 46.341 13.2407 47.1356 13.8974 47.7592C14.5541 48.3829 15.3908 48.8076 16.3017 48.9797C17.2126 49.1517 18.1568 49.0634 19.0148 48.7259C19.8729 48.3884 20.6063 47.8168 21.1222 47.0835C21.6382 46.3501 21.9136 45.4879 21.9136 44.606C21.9136 43.4232 21.4189 42.289 20.5383 41.4527C19.6576 40.6164 18.4632 40.1465 17.2178 40.1465ZM17.2178 46.0924C16.9083 46.0924 16.6056 46.0052 16.3482 45.8419C16.0908 45.6786 15.8902 45.4464 15.7717 45.1748C15.6532 44.9032 15.6223 44.6043 15.6826 44.316C15.743 44.0276 15.8921 43.7627 16.111 43.5549C16.3299 43.347 16.6088 43.2054 16.9125 43.148C17.2161 43.0907 17.5308 43.1201 17.8168 43.2326C18.1029 43.3451 18.3473 43.5357 18.5193 43.7801C18.6913 44.0246 18.7831 44.312 18.7831 44.606C18.7831 45.0002 18.6182 45.3783 18.3246 45.657C18.0311 45.9358 17.633 46.0924 17.2178 46.0924Z" fill="black"/>
<path d="M53.219 43.1194C53.219 44.0014 53.4944 44.8636 54.0104 45.597C54.5264 46.3303 55.2597 46.9019 56.1178 47.2394C56.9758 47.5769 57.92 47.6652 58.8309 47.4932C59.7418 47.3211 60.5785 46.8964 61.2352 46.2727C61.8919 45.6491 62.3392 44.8545 62.5204 43.9894C62.7015 43.1244 62.6085 42.2278 62.2531 41.4129C61.8977 40.5981 61.2958 39.9016 60.5236 39.4116C59.7514 38.9216 58.8435 38.66 57.9148 38.66C56.6694 38.66 55.475 39.1299 54.5944 39.9662C53.7137 40.8025 53.219 41.9367 53.219 43.1194ZM59.4801 43.1194C59.4801 43.4134 59.3883 43.7008 59.2163 43.9453C59.0443 44.1897 58.7998 44.3803 58.5138 44.4928C58.2278 44.6053 57.913 44.6347 57.6094 44.5774C57.3058 44.52 57.0269 44.3784 56.808 44.1705C56.5891 43.9627 56.44 43.6978 56.3796 43.4094C56.3192 43.1211 56.3502 42.8222 56.4687 42.5506C56.5871 42.279 56.7878 42.0468 57.0452 41.8835C57.3026 41.7202 57.6052 41.633 57.9148 41.633C58.3299 41.633 58.7281 41.7896 59.0216 42.0683C59.3151 42.3471 59.4801 42.7252 59.4801 43.1194Z" fill="black"/>
<path d="M51.6537 26.7683H54.7842V29.7413H51.6537V26.7683Z" fill="black"/>
<path d="M56.3495 32.7142H59.48V35.6871H56.3495V32.7142Z" fill="black"/>
<path d="M12.522 56.4977H15.6526V59.4706H12.522V56.4977Z" fill="black"/>
<path d="M59.48 55.0112H62.6106V57.9842H59.48V55.0112Z" fill="black"/>
<path d="M37.5663 14.8765C29.2665 14.8856 21.3094 18.0207 15.4406 23.5941C9.5718 29.1674 6.27051 36.724 6.26099 44.6059V63.93C6.26099 64.3243 6.4259 64.7024 6.71944 64.9811C7.01299 65.2599 7.41112 65.4165 7.82625 65.4165H67.3063C67.7214 65.4165 68.1196 65.2599 68.4131 64.9811C68.7067 64.7024 68.8716 64.3243 68.8716 63.93V44.6059C68.862 36.724 65.5608 29.1674 59.6919 23.5941C53.8231 18.0207 45.866 14.8856 37.5663 14.8765ZM26.6094 62.4436H23.4789V57.9842H26.6094V62.4436ZM26.6094 55.0112H23.4789V52.0383C23.4594 51.8384 23.4864 51.637 23.5582 51.4482C23.6299 51.2594 23.7446 51.088 23.8941 50.9461C24.0435 50.8042 24.224 50.6953 24.4228 50.6271C24.6216 50.559 24.8337 50.5333 25.0442 50.5518H26.6094V55.0112ZM36.001 62.4436H29.74V59.4706H32.8705V56.4977H29.74V50.5518H32.0879L36.001 55.5062V62.4436ZM37.5663 52.5333L36.001 50.5518H39.1315L37.5663 52.5333ZM45.3926 62.4436H39.1315V55.5062L43.0447 50.5518H45.3926V62.4436ZM51.6537 62.4436H48.5231V57.9842H51.6537V62.4436ZM51.6537 55.0112H48.5231V50.5518H50.0884C50.2988 50.5333 50.511 50.559 50.7098 50.6271C50.9085 50.6953 51.0891 50.8042 51.2385 50.9461C51.3879 51.088 51.5026 51.2594 51.5744 51.4482C51.6461 51.637 51.6732 51.8384 51.6537 52.0383V55.0112ZM65.741 62.4436H54.7842V52.0383C54.8061 51.4471 54.6995 50.8579 54.4713 50.3075C54.243 49.757 53.8979 49.2571 53.4575 48.8388C53.017 48.4205 52.4906 48.0928 51.9109 47.876C51.3313 47.6593 50.7109 47.5581 50.0884 47.5789H25.0442C24.4216 47.5581 23.8012 47.6593 23.2216 47.876C22.642 48.0928 22.1156 48.4205 21.6751 48.8388C21.2346 49.2571 20.8895 49.757 20.6613 50.3075C20.433 50.8579 20.3265 51.4471 20.3484 52.0383V62.4436H9.39152V44.6059C9.39298 38.9757 11.2767 33.4912 14.7713 28.943C14.328 29.631 14.0915 30.4211 14.0873 31.2277C14.0789 32.2748 14.4558 33.2919 15.153 34.1032C15.8502 34.9145 16.8238 35.4691 17.9058 35.6712C18.9877 35.8733 20.1101 35.7102 21.0788 35.2101C22.0476 34.7099 22.8021 33.9042 23.2119 32.932C23.6217 31.9598 23.6611 30.8823 23.3232 29.8854C22.9854 28.8886 22.2916 28.0351 21.3617 27.4724C20.4317 26.9097 19.324 26.6731 18.2299 26.8034C17.1358 26.9338 16.124 27.4229 15.3693 28.1864C18.9684 23.7834 23.9271 20.5593 29.5514 18.9653C35.1757 17.3713 41.1841 17.4873 46.7355 19.2969C52.287 21.1065 57.1038 24.5192 60.5116 29.0573C63.9195 33.5955 65.7479 39.032 65.741 44.6059V62.4436ZM17.2178 31.2277C17.2178 30.9337 17.3096 30.6463 17.4816 30.4019C17.6536 30.1574 17.8981 29.9669 18.1841 29.8544C18.4701 29.7419 18.7848 29.7124 19.0885 29.7698C19.3921 29.8271 19.671 29.9687 19.8899 30.1766C20.1088 30.3845 20.2579 30.6494 20.3183 30.9377C20.3787 31.226 20.3477 31.5249 20.2292 31.7965C20.1107 32.0682 19.9101 32.3003 19.6527 32.4637C19.3953 32.627 19.0927 32.7142 18.7831 32.7142C18.368 32.7142 17.9698 32.5576 17.6763 32.2788C17.3827 32 17.2178 31.6219 17.2178 31.2277Z" fill="black"/>
</svg>
